{
  "source": "C:\\Users\\Peter\\Desktop\\stuff\\MIUN\\quantitative_research\\video_compression\\videos\\UVG\\Jockey_1920x1080_120fps_420_8bit_YUV.y4m",
  "output": "C:\\Users\\Peter\\Desktop\\stuff\\MIUN\\quantitative_research\\video_compression\\compressed_videos\\UVG\\vp9\\8\\Jockey_1920x1080_120fps_420_8bit_YUV_vp9.webm",
  "codec": "vp9",
  "ok": "[yuv4mpegpipe @ 0000016ebf0c52c0] Stream #0: not enough frames to estimate rate; consider increasing probesize\nInput #0, yuv4mpegpipe, from 'C:\\Users\\Peter\\Desktop\\stuff\\MIUN\\quantitative_research\\video_compression\\videos\\UVG\\Jockey_1920x1080_120fps_420_8bit_YUV.y4m':\n  Duration: 00:00:05.00, start: 0.000000, bitrate: 2985989 kb/s\n  Stream #0:0: Video: rawvideo (I420 / 0x30323449), yuv420p(progressive), 1920x1080, 120 fps, 120 tbr, 120 tbn\n[out#0/webm @ 0000016ebf0c9b80] Codec AVOption b:a (set bitrate (in bits/s)) has not been used for any stream. The most likely reason is either wrong type (e.g. a video option with no video streams) or that it is a private option of some decoder which was not actually used for any stream.\nStream mapping:\n  Stream #0:0 -> #0:0 (rawvideo (native) -> vp9 (libvpx-vp9))\nPress [q] to stop, [?] for help\n[libvpx-vp9 @ 0000016ebf0ccec0] v1.15.2-100-g40561f514\nOutput #0, webm, to 'C:\\Users\\Peter\\Desktop\\stuff\\MIUN\\quantitative_research\\video_compression\\compressed_videos\\UVG\\vp9\\8\\Jockey_1920x1080_120fps_420_8bit_YUV_vp9.webm':\n  Metadata:\n    encoder         : Lavf62.3.100\n  Stream #0:0: Video: vp9, yuv420p(tv, progressive), 1920x1080, q=2-31, 8000 kb/s, 120 fps, 1k tbn\n    Metadata:\n      encoder         : Lavc62.11.100 libvpx-vp9\n    Side data:\n      cpb: bitrate max/min/avg: 0/0/0 buffer size: 8000000 vbv_delay: N/A\nframe=    0 fps=0.0 q=0.0 size=       0KiB time=N/A bitrate=N/A speed=N/A elapsed=0:00:00.54    \nframe=    7 fps=6.5 q=37.0 size=       0KiB time=00:00:00.05 bitrate=  77.0kbits/s speed=0.0465x elapsed=0:00:01.07    \nframe=   11 fps=6.7 q=33.0 size=       0KiB time=00:00:00.09 bitrate=  42.0kbits/s speed=0.0559x elapsed=0:00:01.64    \nframe=   15 fps=6.9 q=33.0 size=       0KiB time=00:00:00.12 bitrate=  30.8kbits/s speed=0.0577x elapsed=0:00:02.16    \nframe=   20 fps=7.3 q=31.0 size=       0KiB time=00:00:00.16 bitrate=  23.1kbits/s speed=0.0611x elapsed=0:00:02.72    \nframe=   24 fps=7.4 q=32.0 size=       0KiB time=00:00:00.20 bitrate=  19.2kbits/s speed=0.0617x elapsed=0:00:03.24    \nframe=   29 fps=7.7 q=32.0 size=       0KiB time=00:00:00.24 bitrate=  15.9kbits/s speed=0.0642x elapsed=0:00:03.76    \nframe=   33 fps=7.7 q=32.0 size=       0KiB time=00:00:00.26 bitrate=  14.4kbits/s speed=0.062x elapsed=0:00:04.30    \nframe=   37 fps=7.6 q=32.0 size=       0KiB time=00:00:00.30 bitrate=  12.5kbits/s speed=0.0632x elapsed=0:00:04.87    \nframe=   42 fps=7.8 q=32.0 size=       0KiB time=00:00:00.35 bitrate=  11.0kbits/s speed=0.065x elapsed=0:00:05.38    \nframe=   45 fps=7.6 q=33.0 size=       0KiB time=00:00:00.37 bitrate=  10.3kbits/s speed=0.0631x elapsed=0:00:05.94    \nframe=   49 fps=7.5 q=32.0 size=       0KiB time=00:00:00.40 bitrate=   9.4kbits/s speed=0.0627x elapsed=0:00:06.51    \nframe=   53 fps=7.5 q=24.0 size=       0KiB time=00:00:00.44 bitrate=   8.7kbits/s speed=0.0627x elapsed=0:00:07.04    \nframe=   58 fps=7.6 q=33.0 size=       0KiB time=00:00:00.48 bitrate=   8.0kbits/s speed=0.0635x elapsed=0:00:07.60    \nframe=   61 fps=7.5 q=33.0 size=       0KiB time=00:00:00.50 bitrate=   7.6kbits/s speed=0.0626x elapsed=0:00:08.11    \nframe=   66 fps=7.6 q=33.0 size=       0KiB time=00:00:00.55 bitrate=   7.0kbits/s speed=0.0637x elapsed=0:00:08.63    \nframe=   69 fps=7.5 q=33.0 size=       0KiB time=00:00:00.57 bitrate=   6.7kbits/s speed=0.0624x elapsed=0:00:09.20    \nframe=   73 fps=7.5 q=33.0 size=       0KiB time=00:00:00.60 bitrate=   6.3kbits/s speed=0.0625x elapsed=0:00:09.73    \nframe=   77 fps=7.5 q=32.0 size=       0KiB time=00:00:00.64 bitrate=   6.0kbits/s speed=0.0626x elapsed=0:00:10.25    \nframe=   80 fps=7.4 q=32.0 size=       0KiB time=00:00:00.66 bitrate=   5.8kbits/s speed=0.0617x elapsed=0:00:10.80    \nframe=   85 fps=7.5 q=32.0 size=       0KiB time=00:00:00.70 bitrate=   5.4kbits/s speed=0.0625x elapsed=0:00:11.34    \nframe=   88 fps=7.4 q=22.0 size=       0KiB time=00:00:00.72 bitrate=   5.3kbits/s speed=0.061x elapsed=0:00:11.87    \nframe=   93 fps=7.5 q=33.0 size=       0KiB time=00:00:00.77 bitrate=   5.0kbits/s speed=0.0623x elapsed=0:00:12.44    \nframe=   96 fps=7.4 q=33.0 size=       0KiB time=00:00:00.80 bitrate=   4.8kbits/s speed=0.0616x elapsed=0:00:12.97    \nframe=  100 fps=7.4 q=34.0 size=       0KiB time=00:00:00.83 bitrate=   4.6kbits/s speed=0.0616x elapsed=0:00:13.52    \nframe=  103 fps=7.3 q=35.0 size=       0KiB time=00:00:00.85 bitrate=   4.5kbits/s speed=0.0611x elapsed=0:00:14.05    \nframe=  108 fps=7.4 q=35.0 size=       0KiB time=00:00:00.89 bitrate=   4.3kbits/s speed=0.0611x elapsed=0:00:14.59    \nframe=  111 fps=7.3 q=34.0 size=       0KiB time=00:00:00.92 bitrate=   4.2kbits/s speed=0.061x elapsed=0:00:15.16    \nframe=  115 fps=7.3 q=35.0 size=       0KiB time=00:00:00.95 bitrate=   4.0kbits/s speed=0.0611x elapsed=0:00:15.69    \nframe=  120 fps=7.4 q=35.0 size=       0KiB time=00:00:01.00 bitrate=   3.8kbits/s speed=0.0616x elapsed=0:00:16.23    \nframe=  124 fps=7.4 q=36.0 size=       0KiB time=00:00:01.03 bitrate=   3.7kbits/s speed=0.0617x elapsed=0:00:16.75    \nframe=  128 fps=7.4 q=36.0 size=       0KiB time=00:00:01.06 bitrate=   3.6kbits/s speed=0.0617x elapsed=0:00:17.28    \nframe=  132 fps=7.4 q=32.0 size=     768KiB time=00:00:01.10 bitrate=5719.5kbits/s speed=0.0618x elapsed=0:00:17.80    \nframe=  137 fps=7.5 q=33.0 size=     768KiB time=00:00:01.14 bitrate=5510.8kbits/s speed=0.0623x elapsed=0:00:18.32    \nframe=  141 fps=7.5 q=33.0 size=     768KiB time=00:00:01.17 bitrate=5354.4kbits/s speed=0.0622x elapsed=0:00:18.87    \nframe=  143 fps=7.4 q=34.0 size=     768KiB time=00:00:01.19 bitrate=5279.5kbits/s speed=0.0614x elapsed=0:00:19.40    \nframe=  147 fps=7.4 q=33.0 size=     768KiB time=00:00:01.22 bitrate=5135.9kbits/s speed=0.0615x elapsed=0:00:19.92    \nframe=  151 fps=7.4 q=33.0 size=     768KiB time=00:00:01.25 bitrate=4999.8kbits/s speed=0.0616x elapsed=0:00:20.43    \nframe=  155 fps=7.4 q=34.0 size=     768KiB time=00:00:01.29 bitrate=4870.8kbits/s speed=0.0617x elapsed=0:00:20.94    \nframe=  158 fps=7.4 q=35.0 size=     768KiB time=00:00:01.31 bitrate=4778.3kbits/s speed=0.0614x elapsed=0:00:21.45    \nframe=  162 fps=7.4 q=34.0 size=     768KiB time=00:00:01.35 bitrate=4660.3kbits/s speed=0.0614x elapsed=0:00:21.99    \nframe=  166 fps=7.4 q=34.0 size=     768KiB time=00:00:01.38 bitrate=4548.0kbits/s speed=0.0614x elapsed=0:00:22.53    \nframe=  170 fps=7.4 q=35.0 size=     768KiB time=00:00:01.41 bitrate=4441.0kbits/s speed=0.0614x elapsed=0:00:23.05    \nframe=  173 fps=7.3 q=35.0 size=     768KiB time=00:00:01.44 bitrate=4364.0kbits/s speed=0.0611x elapsed=0:00:23.59    \nframe=  177 fps=7.3 q=34.0 size=     768KiB time=00:00:01.47 bitrate=4265.4kbits/s speed=0.0611x elapsed=0:00:24.13    \nframe=  181 fps=7.3 q=34.0 size=     768KiB time=00:00:01.50 bitrate=4171.1kbits/s speed=0.0611x elapsed=0:00:24.66    \nframe=  185 fps=7.3 q=34.0 size=     768KiB time=00:00:01.54 bitrate=4080.9kbits/s speed=0.0612x elapsed=0:00:25.20    \nframe=  188 fps=7.3 q=35.0 size=     768KiB time=00:00:01.56 bitrate=4015.8kbits/s speed=0.0607x elapsed=0:00:25.78    \nframe=  193 fps=7.3 q=34.0 size=     768KiB time=00:00:01.60 bitrate=3932.2kbits/s speed=0.0608x elapsed=0:00:26.30    \nframe=  197 fps=7.3 q=35.0 size=     768KiB time=00:00:01.64 bitrate=3832.4kbits/s speed=0.061x elapsed=0:00:26.90    \nframe=  201 fps=7.3 q=35.0 size=     768KiB time=00:00:01.67 bitrate=3756.1kbits/s speed=0.061x elapsed=0:00:27.44    \nframe=  204 fps=7.3 q=19.0 size=     768KiB time=00:00:01.69 bitrate=3719.1kbits/s speed=0.0605x elapsed=0:00:27.95    \nframe=  210 fps=7.4 q=35.0 size=     768KiB time=00:00:01.74 bitrate=3612.3kbits/s speed=0.0611x elapsed=0:00:28.50    \nframe=  215 fps=7.4 q=35.0 size=     768KiB time=00:00:01.79 bitrate=3511.5kbits/s speed=0.0617x elapsed=0:00:29.04    \nframe=  219 fps=7.4 q=26.0 size=     768KiB time=00:00:01.82 bitrate=3447.4kbits/s speed=0.0617x elapsed=0:00:29.56    \nframe=  224 fps=7.4 q=36.0 size=     768KiB time=00:00:01.86 bitrate=3370.4kbits/s speed=0.0621x elapsed=0:00:30.07    \nframe=  229 fps=7.5 q=37.0 size=     768KiB time=00:00:01.90 bitrate=3296.8kbits/s speed=0.0624x elapsed=0:00:30.59    \nframe=  234 fps=7.5 q=37.0 size=     768KiB time=00:00:01.95 bitrate=3226.4kbits/s speed=0.0627x elapsed=0:00:31.10    \nframe=  239 fps=7.6 q=36.0 size=     768KiB time=00:00:01.99 bitrate=3158.9kbits/s speed=0.063x elapsed=0:00:31.61    \nframe=  245 fps=7.6 q=37.0 size=     768KiB time=00:00:02.04 bitrate=3081.5kbits/s speed=0.0635x elapsed=0:00:32.13    \nframe=  250 fps=7.7 q=38.0 size=     768KiB time=00:00:02.08 bitrate=3019.9kbits/s speed=0.0638x elapsed=0:00:32.66    \nframe=  256 fps=7.7 q=38.0 size=     768KiB time=00:00:02.13 bitrate=2949.1kbits/s speed=0.0643x elapsed=0:00:33.19    \nframe=  261 fps=7.7 q=36.0 size=    1792KiB time=00:00:02.17 bitrate=6749.5kbits/s speed=0.0644x elapsed=0:00:33.75    \nframe=  266 fps=7.8 q=36.0 size=    1792KiB time=00:00:02.21 bitrate=6622.6kbits/s speed=0.0646x elapsed=0:00:34.29    \nframe=  270 fps=7.8 q=36.0 size=    1792KiB time=00:00:02.25 bitrate=6524.5kbits/s speed=0.0646x elapsed=0:00:34.81    \nframe=  276 fps=7.8 q=36.0 size=    1792KiB time=00:00:02.30 bitrate=6382.6kbits/s speed=0.0651x elapsed=0:00:35.32    \nframe=  280 fps=7.8 q=36.0 size=    1792KiB time=00:00:02.33 bitrate=6291.5kbits/s speed=0.0651x elapsed=0:00:35.85    \nframe=  285 fps=7.8 q=26.0 size=    1792KiB time=00:00:02.37 bitrate=6181.1kbits/s speed=0.0653x elapsed=0:00:36.36    \nframe=  291 fps=7.9 q=43.0 size=    1792KiB time=00:00:02.41 bitrate=6074.5kbits/s speed=0.0655x elapsed=0:00:36.89    \nframe=  295 fps=7.9 q=43.0 size=    1792KiB time=00:00:02.45 bitrate=5971.6kbits/s speed=0.0657x elapsed=0:00:37.43    \nframe=  300 fps=7.9 q=44.0 size=    1792KiB time=00:00:02.50 bitrate=5872.0kbits/s speed=0.0659x elapsed=0:00:37.94    \nframe=  305 fps=7.9 q=45.0 size=    1792KiB time=00:00:02.54 bitrate=5775.8kbits/s speed=0.0661x elapsed=0:00:38.47    \nframe=  310 fps=7.9 q=47.0 size=    1792KiB time=00:00:02.58 bitrate=5682.6kbits/s speed=0.0662x elapsed=0:00:39.00    \nframe=  315 fps=8.0 q=46.0 size=    1792KiB time=00:00:02.62 bitrate=5592.4kbits/s speed=0.0664x elapsed=0:00:39.55    \nframe=  320 fps=8.0 q=33.0 size=    1792KiB time=00:00:02.66 bitrate=5505.0kbits/s speed=0.0665x elapsed=0:00:40.08    \nframe=  326 fps=8.0 q=44.0 size=    1792KiB time=00:00:02.71 bitrate=5403.7kbits/s speed=0.0669x elapsed=0:00:40.61    \nframe=  331 fps=8.0 q=42.0 size=    1792KiB time=00:00:02.75 bitrate=5322.1kbits/s speed=0.067x elapsed=0:00:41.17    \nframe=  336 fps=8.1 q=42.0 size=    1792KiB time=00:00:02.80 bitrate=5242.9kbits/s speed=0.0672x elapsed=0:00:41.69    \nframe=  342 fps=8.1 q=42.0 size=    1792KiB time=00:00:02.85 bitrate=5150.9kbits/s speed=0.0675x elapsed=0:00:42.22    \nframe=  348 fps=8.1 q=42.0 size=    1792KiB time=00:00:02.90 bitrate=5062.1kbits/s speed=0.0679x elapsed=0:00:42.72    \nframe=  352 fps=8.1 q=41.0 size=    1792KiB time=00:00:02.93 bitrate=5004.6kbits/s speed=0.0678x elapsed=0:00:43.24    \nframe=  359 fps=8.2 q=43.0 size=    1792KiB time=00:00:02.99 bitrate=4907.0kbits/s speed=0.0683x elapsed=0:00:43.79    \nframe=  364 fps=8.2 q=18.0 size=    1792KiB time=00:00:03.03 bitrate=4839.6kbits/s speed=0.0684x elapsed=0:00:44.32    \nframe=  370 fps=8.3 q=43.0 size=    1792KiB time=00:00:03.08 bitrate=4761.1kbits/s speed=0.0688x elapsed=0:00:44.83    \nframe=  376 fps=8.3 q=40.0 size=    1792KiB time=00:00:03.13 bitrate=4685.1kbits/s speed=0.0691x elapsed=0:00:45.35    \nframe=  383 fps=8.4 q=40.0 size=    1792KiB time=00:00:03.19 bitrate=4599.5kbits/s speed=0.0696x elapsed=0:00:45.86    \nframe=  389 fps=8.4 q=38.0 size=    2816KiB time=00:00:03.24 bitrate=7116.3kbits/s speed=0.0699x elapsed=0:00:46.39    \nframe=  397 fps=8.5 q=37.0 size=    2816KiB time=00:00:03.30 bitrate=6972.9kbits/s speed=0.0705x elapsed=0:00:46.90    \nframe=  402 fps=8.5 q=36.0 size=    2816KiB time=00:00:03.35 bitrate=6886.2kbits/s speed=0.0706x elapsed=0:00:47.44    \nframe=  409 fps=8.5 q=33.0 size=    2816KiB time=00:00:03.40 bitrate=6768.3kbits/s speed=0.071x elapsed=0:00:47.97    \nframe=  414 fps=8.5 q=32.0 size=    2816KiB time=00:00:03.45 bitrate=6686.6kbits/s speed=0.0711x elapsed=0:00:48.50    \nframe=  420 fps=8.6 q=31.0 size=    2816KiB time=00:00:03.50 bitrate=6591.0kbits/s speed=0.0714x elapsed=0:00:49.02    \nframe=  426 fps=8.6 q=30.0 size=    2816KiB time=00:00:03.55 bitrate=6498.2kbits/s speed=0.0717x elapsed=0:00:49.53    \nframe=  431 fps=8.6 q=26.0 size=    2816KiB time=00:00:03.59 bitrate=6422.8kbits/s speed=0.0717x elapsed=0:00:50.06    \nframe=  437 fps=8.6 q=27.0 size=    2816KiB time=00:00:03.64 bitrate=6334.6kbits/s speed=0.072x elapsed=0:00:50.58    \nframe=  443 fps=8.7 q=29.0 size=    2816KiB time=00:00:03.69 bitrate=6248.8kbits/s speed=0.0722x elapsed=0:00:51.11    \nframe=  448 fps=8.7 q=29.0 size=    2816KiB time=00:00:03.73 bitrate=6179.1kbits/s speed=0.0723x elapsed=0:00:51.64    \nframe=  454 fps=8.7 q=29.0 size=    2816KiB time=00:00:03.78 bitrate=6097.4kbits/s speed=0.0725x elapsed=0:00:52.16    \nframe=  459 fps=8.7 q=28.0 size=    2816KiB time=00:00:03.82 bitrate=6031.0kbits/s speed=0.0726x elapsed=0:00:52.70    \nframe=  465 fps=8.7 q=27.0 size=    2816KiB time=00:00:03.87 bitrate=5953.2kbits/s speed=0.0728x elapsed=0:00:53.22    \nframe=  471 fps=8.8 q=26.0 size=    2816KiB time=00:00:03.92 bitrate=5877.4kbits/s speed=0.073x elapsed=0:00:53.74    \nframe=  475 fps=8.8 q=14.0 size=    2816KiB time=00:00:03.95 bitrate=5827.9kbits/s speed=0.0729x elapsed=0:00:54.27    \nframe=  480 fps=8.8 q=25.0 size=    2816KiB time=00:00:04.00 bitrate=5767.2kbits/s speed=0.073x elapsed=0:00:54.78    \nframe=  486 fps=8.8 q=25.0 size=    2816KiB time=00:00:04.05 bitrate=5696.0kbits/s speed=0.0732x elapsed=0:00:55.31    \nframe=  490 fps=8.8 q=15.0 size=    2816KiB time=00:00:04.08 bitrate=5649.5kbits/s speed=0.0731x elapsed=0:00:55.85    \nframe=  496 fps=8.8 q=27.0 size=    2816KiB time=00:00:04.13 bitrate=5581.1kbits/s speed=0.0733x elapsed=0:00:56.38    \nframe=  500 fps=8.8 q=30.0 size=    2816KiB time=00:00:04.16 bitrate=5536.5kbits/s speed=0.0732x elapsed=0:00:56.91    \nframe=  506 fps=8.8 q=30.0 size=    2816KiB time=00:00:04.21 bitrate=5470.8kbits/s speed=0.0734x elapsed=0:00:57.42    \nframe=  512 fps=8.8 q=30.0 size=    2816KiB time=00:00:04.26 bitrate=5406.7kbits/s speed=0.0736x elapsed=0:00:57.94    \nframe=  518 fps=8.9 q=28.0 size=    3840KiB time=00:00:04.31 bitrate=7287.4kbits/s speed=0.0738x elapsed=0:00:58.48    \nframe=  524 fps=8.9 q=28.0 size=    3840KiB time=00:00:04.36 bitrate=7204.0kbits/s speed=0.074x elapsed=0:00:59.01    \nframe=  529 fps=8.9 q=28.0 size=    3840KiB time=00:00:04.40 bitrate=7135.9kbits/s speed=0.074x elapsed=0:00:59.53    \nframe=  535 fps=8.9 q=27.0 size=    3840KiB time=00:00:04.45 bitrate=7055.8kbits/s speed=0.0742x elapsed=0:01:00.07    \nframe=  540 fps=8.9 q=28.0 size=    3840KiB time=00:00:04.50 bitrate=6990.5kbits/s speed=0.0743x elapsed=0:01:00.59    \nframe=  544 fps=8.9 q=28.0 size=    3840KiB time=00:00:04.53 bitrate=6939.1kbits/s speed=0.0742x elapsed=0:01:01.12    \nframe=  549 fps=8.9 q=28.0 size=    3840KiB time=00:00:04.57 bitrate=6875.9kbits/s speed=0.0742x elapsed=0:01:01.66    \nframe=  554 fps=8.9 q=30.0 size=    3840KiB time=00:00:04.61 bitrate=6813.9kbits/s speed=0.0742x elapsed=0:01:02.18    \nframe=  559 fps=8.9 q=32.0 size=    3840KiB time=00:00:04.65 bitrate=6752.9kbits/s speed=0.0743x elapsed=0:01:02.70    \nframe=  564 fps=8.9 q=31.0 size=    3840KiB time=00:00:04.70 bitrate=6693.0kbits/s speed=0.0743x elapsed=0:01:03.25    \nframe=  568 fps=8.9 q=34.0 size=    3840KiB time=00:00:04.73 bitrate=6645.9kbits/s speed=0.0742x elapsed=0:01:03.80    \nframe=  574 fps=8.9 q=35.0 size=    3840KiB time=00:00:04.78 bitrate=6576.4kbits/s speed=0.0744x elapsed=0:01:04.31    \nframe=  576 fps=8.9 q=35.0 size=    3840KiB time=00:00:04.80 bitrate=6553.6kbits/s speed=0.074x elapsed=0:01:04.83    \nframe=  576 fps=8.8 q=35.0 size=    3840KiB time=00:00:04.80 bitrate=6553.6kbits/s speed=0.0734x elapsed=0:01:05.36    \nframe=  576 fps=8.7 q=35.0 size=    3840KiB time=00:00:04.80 bitrate=6553.6kbits/s speed=0.0728x elapsed=0:01:05.89    \nframe=  576 fps=8.7 q=35.0 size=    3840KiB time=00:00:04.80 bitrate=6553.6kbits/s speed=0.0722x elapsed=0:01:06.45    \n[out#0/webm @ 0000016ebf0c9b80] video:4785KiB audio:0KiB subtitle:0KiB other streams:0KiB global headers:0KiB muxing overhead: 0.099824%\nframe=  600 fps=9.0 q=34.0 Lsize=    4790KiB time=00:00:05.00 bitrate=7847.2kbits/s speed=0.0747x elapsed=0:01:06.92    \n",
  "seconds": 67.10301399230957,
  "probe_out": {}
}